<svg width="189" height="217" viewBox="0 0 189 217" fill="none" xmlns="http://www.w3.org/2000/svg">
<path d="M0 181.623C0 162.083 15.8404 146.242 35.3804 146.242H94.3478V217.003H35.3804C15.8403 217.003 0 201.163 0 181.623V181.623Z" fill="#D83A3A"/>
<path d="M188.698 181.621C188.698 201.161 172.858 217.001 153.317 217.001L94.35 217.001L94.3501 146.241L153.317 146.241C172.858 146.241 188.698 162.081 188.698 181.621V181.621Z" fill="#F10606"/>
<path d="M188.698 108.503C188.698 129.346 171.801 146.242 150.959 146.242L94.35 146.242L94.3501 70.7639L150.959 70.764C171.802 70.764 188.698 87.6603 188.698 108.503V108.503Z" fill="#9C0041"/>
<rect x="188.698" y="70.7612" width="188.696" height="70.7608" rx="35.3804" transform="rotate(-180 188.698 70.7612)" fill="#710544"/>
<rect x="94.3489" y="146.242" width="94.3478" height="75.4782" rx="37.7391" transform="rotate(-180 94.3489 146.242)" fill="#BA0849"/>
</svg>
